<svg width="162" height="200" viewBox="0 0 162 200" fill="none" xmlns="http://www.w3.org/2000/svg">
<mask id="mask0_20_3" style="mask-type:luminance" maskUnits="userSpaceOnUse" x="65" y="17" width="97" height="183">
<path d="M65.2188 17.3333H161.219V199.979H65.2188V17.3333Z" fill="white"/>
</mask>
<g mask="url(#mask0_20_3)">
<path d="M97.3906 29.2344C109.562 31.875 118.505 35.5625 125.198 39.6562C131.708 43.6406 136.104 48.0156 139.302 52.1615C148.547 64.1406 150.531 78.3125 147.333 92.2135C143.667 108.172 133.276 123.802 119.151 135.625H119.156C111.974 141.438 105.484 147.615 99.9426 155.562C97.0312 159.75 94.3958 164.401 92.0781 169.719L92.0833 169.24C92.1979 163.104 94.2447 156.682 97.7395 150.943L100.385 146.599L96.3958 143.458C90.3854 138.719 84.7395 133.25 81.2916 127.042C80.2083 125.089 79.3385 123.047 78.7447 120.901C82.3906 124.016 86.2395 126.271 90.1197 127.833C100.557 132.042 111.161 131.177 118.63 128.552L114.865 117.75C109.516 119.63 101.901 120.245 94.3801 117.208C88.6354 114.896 82.9166 110.411 78.2187 102.688L71.3645 91.4167L67.8176 104.12C64.8072 114.917 66.7187 124.354 71.2968 132.599C74.8489 138.995 79.9739 144.542 85.5676 149.38C82.526 155.646 80.776 162.427 80.6562 169.062C80.5104 176.943 82.651 184.604 87.6041 191L94.8124 200.302L97.6926 188.896C100.552 177.557 104.521 169.047 109.359 162.109C114.208 155.146 119.984 149.672 126.417 144.474L126.505 144.406C142.474 131.042 154.26 113.172 158.495 94.7708C162.422 77.6719 159.906 60.1354 148.354 45.1667C144.427 40.0729 139.057 34.7135 131.161 29.8854C123.448 25.1719 113.338 20.9635 99.8072 18.0312L97.3906 29.2344Z" fill="#FFDE59"/>
</g>
<mask id="mask1_20_3" style="mask-type:luminance" maskUnits="userSpaceOnUse" x="0" y="0" width="142" height="135">
<path d="M0 0H141.219V134.667H0V0Z" fill="white"/>
</mask>
<g mask="url(#mask1_20_3)">
<path d="M135.922 131.943C130.068 93.3594 101.719 83.1511 72.4636 72.6146C56.4844 66.8646 40.2136 61.0052 28.2969 50.0365C22.073 44.1302 16.5782 37.6407 13.7605 31.7344C12.3855 28.849 11.7136 26.2604 12.0469 24.2084C12.3125 22.5782 13.4063 21.0782 15.5782 19.8073C18.3907 18.1615 22.698 16.9427 28.8282 16.3125C34.8855 15.6823 42.25 15.7761 50.9219 16.5886C59.7761 17.4115 69.948 18.9844 81.4427 21.3021L85.5417 20.5834C91.8959 16.6927 98.698 14.0938 105.953 12.7969C110.531 11.974 115.307 11.6615 120.286 11.8542C119.234 13.6042 118.198 15.4844 117.286 17.4063L127.641 22.2917C128.875 19.6875 130.344 17.2344 131.667 15.2188C132.958 13.25 134.24 11.5365 134.964 10.5938L140.823 2.95315L131.286 1.47399C121.651 -0.0208058 112.536 0.00523588 103.932 1.54169C95.9792 2.96878 88.5105 5.67711 81.5209 9.6667C70.4948 7.50003 60.6407 6.01565 51.9532 5.20315C42.5157 4.31774 34.4167 4.2292 27.6615 4.92711C19.8334 5.7344 13.9948 7.48961 9.79692 9.94795C4.38025 13.1198 1.56775 17.3907 0.755249 22.3698C0.0052489 26.9219 1.07296 31.7709 3.40629 36.6615C6.87504 43.9375 13.3021 51.599 20.474 58.3959L20.5417 58.4636C34.1094 70.948 51.5209 77.2188 68.6042 83.375C94.5834 92.724 119.75 101.786 124.583 133.646L135.922 131.943Z" fill="#FFDE59"/>
</g>
<path d="M12.3075 32.2291C12.5887 31.4583 12.9585 30.7552 13.422 30.1145C15.4064 27.3437 19.3491 26.3281 24.3335 26.4583C30.5054 26.625 37.9741 28.5468 45.62 31.302C63.2814 37.6718 81.3908 48.3697 87.5314 52.7708L89.7345 54.3489L92.3491 53.6458C98.1356 52.0781 105.349 50.526 111.922 51.1197C114.479 51.3489 116.979 51.927 119.281 53.0052C114.318 54.1979 108.552 56.0989 103.474 59.1041L95.422 63.8645L103.339 68.875C113.453 75.2708 121.021 85.552 124.969 96.9114C128.844 108.078 129.182 120.224 124.943 130.641L135.563 134.943C140.875 121.891 140.521 106.875 135.771 93.1927C132.11 82.6562 125.828 72.8645 117.516 65.3489C125.016 62.9114 131.985 62.4947 132.011 62.4895L141.557 61.901L136.563 53.7708C130.719 44.276 122.031 40.5572 112.906 39.7343C105.589 39.0781 98.1825 40.3645 91.9585 41.9062C83.9325 36.5937 66.5262 26.6927 49.4741 20.5468C40.797 17.4166 32.12 15.2343 24.6043 15.0312C15.9012 14.7968 8.60954 17.1458 4.09912 23.4322C3.08871 24.8437 2.23454 26.4843 1.55225 28.375L12.3075 32.2291Z" fill="#FFDE59"/>
<path d="M35.0365 57.3803C34.5105 54.8959 34.3751 52.9115 34.6355 51.4428C34.7865 50.5782 35.073 50.0261 35.5 49.7865C36.4532 49.2501 38.1146 49.099 40.4844 49.3334C45.4271 49.823 52.3178 52.0626 61.1563 56.0417L65.8646 45.599C55.9167 41.1199 47.8282 38.5678 41.6042 37.948C36.8646 37.474 32.9636 38.1042 29.8959 39.8386C26.3021 41.8699 24.1146 45.0834 23.3386 49.4688C22.8282 52.3699 22.9896 55.8022 23.8334 59.7553L35.0365 57.3803Z" fill="#FFDE59"/>
</svg>
