<svg width="301" height="233" viewBox="0 0 301 233" fill="none" xmlns="http://www.w3.org/2000/svg">
<path d="M0.699219 0H25.0534C31.6055 0 36.3659 1.60417 39.3242 4.8125C42.293 8.02083 43.7826 13.25 43.7826 20.5V24.4583C43.7826 33.0417 40.7096 38.1667 34.5742 39.8333C38.3346 40.8229 40.9805 43.0938 42.5117 46.6458C44.0534 50.2031 44.8242 54.9063 44.8242 60.75C44.8242 70.3073 43.3919 77.5417 40.5326 82.4583C37.6836 87.375 32.5221 89.8333 25.0534 89.8333H0.699219V0ZM21.9284 33.7708C23.4544 33.7708 24.4961 33.2031 25.0534 32.0625C25.6211 30.9115 25.9076 29.2865 25.9076 27.1875V18.1875C25.9076 15.2604 24.6159 13.7917 22.0326 13.7917H18.2617V33.7708H21.9284ZM20.0326 74.0417C24.7096 74.0417 27.0534 71.8125 27.0534 67.3542V56.1667C27.0534 53.4479 26.6471 51.3906 25.8451 50C25.0378 48.599 23.6263 47.8958 21.6159 47.8958H18.2617V73.9375L20.0326 74.0417Z" fill="white"/>
<path d="M70.0358 90.6667C62.6452 90.6667 57.1504 88.5781 53.5566 84.3958C49.9733 80.2188 48.1816 74.0104 48.1816 65.7708V0H65.64V65.0417C65.64 67.9062 65.916 70.1406 66.4733 71.75C67.0254 73.349 68.2129 74.1458 70.0358 74.1458C71.8379 74.1458 73.0202 73.3646 73.5775 71.7917C74.1452 70.224 74.4316 67.974 74.4316 65.0417V0H91.89V65.7708C91.89 74.0104 90.0879 80.2188 86.4941 84.3958C82.9108 88.5781 77.4212 90.6667 70.0358 90.6667Z" fill="white"/>
<path d="M108.1 89.8333V60.2292L93.7666 0H111.558L116.558 30.4375L121.579 0H139.371L125.037 60.2292V89.8333H108.1Z" fill="white"/>
<path d="M172.929 89.8333V17.25H162.263V0H201.596V17.25H190.929V89.8333H172.929Z" fill="white"/>
<path d="M205.044 89.8333V0H222.919V32.1042H231.399V0H249.274V89.8333H231.399V49.0417H222.919V89.8333H205.044Z" fill="white"/>
<path d="M255.66 89.8333V0H291.639V17.3542H273.952V34.8125H290.91V51.7708H273.952V72.375H292.785V89.8333H255.66Z" fill="white"/>
<path d="M0 99.3677H40.8125C47.3125 99.3677 52.3385 100.842 55.8958 103.784C59.4479 106.717 61.8438 110.836 63.0833 116.139C64.3177 121.446 64.9375 128.222 64.9375 136.472C64.9375 144.003 63.9583 149.878 62 154.097C60.0417 158.321 56.6354 161.258 51.7917 162.909C55.8177 163.732 58.7344 165.737 60.5417 168.93C62.3438 172.128 63.25 176.461 63.25 181.93L62.9375 232.18H36.9583V180.222C36.9583 176.514 36.2344 174.149 34.7917 173.118C33.3438 172.092 30.7135 171.576 26.8958 171.576V232.18H0V99.3677ZM33.3958 148.534C37.1042 148.534 38.9583 144.514 38.9583 136.472C38.9583 132.961 38.8021 130.326 38.5 128.576C38.1927 126.826 37.625 125.618 36.7917 124.951C35.9688 124.284 34.7917 123.951 33.25 123.951H27.0625V148.534H33.3958Z" fill="white"/>
<path d="M70.2026 232.18V99.3677H95.8693V232.18H70.2026Z" fill="white"/>
<path d="M116.418 232.18L100.043 99.2012H125.398L135.127 189.66L143.793 99.2012H169.148L152.773 232.18H116.418Z" fill="white"/>
<path d="M174.405 232.18V99.3677H227.593V125.034H201.468V150.847H226.509V175.889H201.468V206.368H229.301V232.18H174.405Z" fill="white"/>
<path d="M235.788 99.3677H276.6C283.1 99.3677 288.126 100.842 291.683 103.784C295.236 106.717 297.631 110.836 298.871 116.139C300.105 121.446 300.725 128.222 300.725 136.472C300.725 144.003 299.746 149.878 297.788 154.097C295.829 158.321 292.423 161.258 287.579 162.909C291.605 163.732 294.522 165.737 296.329 168.93C298.131 172.128 299.038 176.461 299.038 181.93L298.725 232.18H272.746V180.222C272.746 176.514 272.022 174.149 270.579 173.118C269.131 172.092 266.501 171.576 262.683 171.576V232.18H235.788V99.3677ZM269.183 148.534C272.892 148.534 274.746 144.514 274.746 136.472C274.746 132.961 274.59 130.326 274.288 128.576C273.98 126.826 273.413 125.618 272.579 124.951C271.756 124.284 270.579 123.951 269.038 123.951H262.85V148.534H269.183Z" fill="white"/>
</svg>
