<svg width="400" height="400" viewBox="0 0 400 400" fill="none" xmlns="http://www.w3.org/2000/svg">
<mask id="path-1-inside-1_46_6" fill="white">
<path fill-rule="evenodd" clip-rule="evenodd" d="M250 0H150V150H0V250H150V400H250V250H400V150H250V0Z"/>
</mask>
<path fill-rule="evenodd" clip-rule="evenodd" d="M250 0H150V150H0V250H150V400H250V250H400V150H250V0Z" fill="#FFDE59"/>
<path d="M150 0V-5H145V0H150ZM250 0H255V-5H250V0ZM150 150V155H155V150H150ZM0 150V145H-5V150H0ZM0 250H-5V255H0V250ZM150 250H155V245H150V250ZM150 400H145V405H150V400ZM250 400V405H255V400H250ZM250 250V245H245V250H250ZM400 250V255H405V250H400ZM400 150H405V145H400V150ZM250 150H245V155H250V150ZM150 5H250V-5H150V5ZM155 150V0H145V150H155ZM0 155H150V145H0V155ZM5 250V150H-5V250H5ZM150 245H0V255H150V245ZM155 400V250H145V400H155ZM250 395H150V405H250V395ZM245 250V400H255V250H245ZM400 245H250V255H400V245ZM395 150V250H405V150H395ZM250 155H400V145H250V155ZM245 0V150H255V0H245Z" fill="black" mask="url(#path-1-inside-1_46_6)"/>
</svg>
